<?xml version="1.0" standalone="no"?>
<!DOCTYPE svg PUBLIC "-//W3C//DTD SVG 20010904//EN"
 "http://www.w3.org/TR/2001/REC-SVG-20010904/DTD/svg10.dtd">
<svg version="1.0" xmlns="http://www.w3.org/2000/svg"
 width="500.000000pt" height="500.000000pt" viewBox="0 0 500.000000 500.000000"
 preserveAspectRatio="xMidYMid meet">

<g transform="translate(0.000000,500.000000) scale(0.100000,-0.100000)"
fill="#000000" stroke="none">
<path d="M1795 3753 c-100 -22 -152 -40 -225 -75 -69 -34 -102 -58 -175 -132
-136 -137 -200 -279 -212 -467 -11 -172 36 -329 147 -494 44 -65 294 -336 308
-334 4 0 22 20 40 45 l32 44 -133 145 c-185 201 -238 296 -267 477 -13 82 -3
174 30 275 65 198 247 350 464 390 80 15 97 15 182 1 143 -24 246 -77 346
-178 62 -63 86 -96 120 -169 39 -82 58 -109 58 -81 0 19 43 104 81 160 100
150 251 243 435 270 204 30 429 -67 550 -235 187 -263 148 -587 -105 -861
-252 -275 -950 -986 -961 -979 -5 3 -17 29 -27 58 -13 39 -18 80 -17 162 0
122 17 180 77 271 39 60 171 200 252 267 382 317 515 491 540 709 6 51 5 57
-14 63 -38 12 -87 -12 -147 -71 -140 -139 -388 -269 -824 -434 -332 -125 -428
-170 -529 -246 -63 -47 -130 -126 -131 -153 0 -8 20 -34 45 -57 42 -41 44 -42
51 -21 33 104 183 208 490 338 54 23 117 49 139 59 22 10 74 32 115 50 141 61
351 172 456 241 108 71 245 197 283 259 l21 35 0 -34 c0 -163 -169 -371 -524
-645 -133 -103 -274 -242 -327 -324 -69 -105 -91 -169 -97 -285 -6 -114 12
-202 63 -313 33 -73 63 -104 100 -104 26 0 240 216 946 955 256 267 320 374
360 599 20 114 -4 289 -56 401 -87 190 -271 346 -470 401 -101 27 -246 30
-342 5 -159 -39 -304 -125 -400 -237 l-46 -53 -38 47 c-127 159 -355 264 -567
261 -42 -1 -86 -3 -97 -6z"/>
<path d="M3279 3313 c-8 -15 -31 -59 -52 -97 -20 -38 -35 -71 -33 -74 3 -2 27
3 53 12 46 15 52 15 107 -4 32 -10 56 -15 54 -10 -9 26 -104 200 -109 200 -3
0 -12 -12 -20 -27z"/>
<path d="M3223 2947 c-24 -35 -28 -47 -15 -47 5 0 18 18 31 40 27 48 15 53
-16 7z"/>
<path d="M3080 2794 c-31 -30 -41 -47 -34 -54 7 -7 24 4 54 35 59 60 41 77
-20 19z"/>
<path d="M2866 2634 c-56 -38 -65 -48 -55 -60 13 -16 23 -12 105 51 33 26 40
36 30 44 -9 8 -30 -2 -80 -35z"/>
<path d="M2583 2467 c-40 -23 -73 -45 -73 -48 0 -3 6 -14 14 -24 12 -17 17
-16 90 30 49 31 76 54 74 64 -5 26 -30 21 -105 -22z"/>
<path d="M2257 2264 l-79 -56 23 -24 c12 -13 25 -24 29 -24 3 0 29 19 56 43
27 23 60 49 73 58 21 13 22 18 12 37 -6 12 -17 22 -24 22 -7 0 -47 -26 -90
-56z"/>
<path d="M2041 2047 c-18 -23 -61 -121 -61 -143 0 -11 15 -35 34 -53 33 -32
33 -32 40 -9 3 13 6 32 6 43 0 11 11 46 24 77 l23 56 -28 21 c-21 16 -29 18
-38 8z"/>
</g>
</svg>
